<svg xmlns="http://www.w3.org/2000/svg" xmlns:xlink="http://www.w3.org/1999/xlink" width="500" zoomAndPan="magnify" viewBox="0 0 375 374.999991" height="500" preserveAspectRatio="xMidYMid meet" version="1.0"><defs><g/><clipPath id="d769565f48"><path d="M 23.472656 23.472656 L 351.527344 23.472656 L 351.527344 351.527344 L 23.472656 351.527344 Z M 23.472656 23.472656 " clip-rule="nonzero"/></clipPath><clipPath id="07e1988936"><path d="M 187.5 23.472656 C 96.910156 23.472656 23.472656 96.910156 23.472656 187.5 C 23.472656 278.089844 96.910156 351.527344 187.5 351.527344 C 278.089844 351.527344 351.527344 278.089844 351.527344 187.5 C 351.527344 96.910156 278.089844 23.472656 187.5 23.472656 Z M 187.5 23.472656 " clip-rule="nonzero"/></clipPath><clipPath id="38422c0797"><path d="M 0.472656 0.472656 L 328.527344 0.472656 L 328.527344 328.527344 L 0.472656 328.527344 Z M 0.472656 0.472656 " clip-rule="nonzero"/></clipPath><clipPath id="34013ea84d"><path d="M 164.5 0.472656 C 73.910156 0.472656 0.472656 73.910156 0.472656 164.5 C 0.472656 255.089844 73.910156 328.527344 164.5 328.527344 C 255.089844 328.527344 328.527344 255.089844 328.527344 164.5 C 328.527344 73.910156 255.089844 0.472656 164.5 0.472656 Z M 164.5 0.472656 " clip-rule="nonzero"/></clipPath><clipPath id="57987e6c10"><rect x="0" width="329" y="0" height="329"/></clipPath><clipPath id="6db18be850"><path d="M 30.316406 30.316406 L 344.683594 30.316406 L 344.683594 344.683594 L 30.316406 344.683594 Z M 30.316406 30.316406 " clip-rule="nonzero"/></clipPath><clipPath id="2a37090773"><path d="M 187.5 30.316406 C 100.6875 30.316406 30.316406 100.6875 30.316406 187.5 C 30.316406 274.3125 100.6875 344.683594 187.5 344.683594 C 274.3125 344.683594 344.683594 274.3125 344.683594 187.5 C 344.683594 100.6875 274.3125 30.316406 187.5 30.316406 Z M 187.5 30.316406 " clip-rule="nonzero"/></clipPath><clipPath id="60738eb40e"><path d="M 0.316406 0.316406 L 314.683594 0.316406 L 314.683594 314.683594 L 0.316406 314.683594 Z M 0.316406 0.316406 " clip-rule="nonzero"/></clipPath><clipPath id="dd670e800b"><path d="M 157.5 0.316406 C 70.6875 0.316406 0.316406 70.6875 0.316406 157.5 C 0.316406 244.3125 70.6875 314.683594 157.5 314.683594 C 244.3125 314.683594 314.683594 244.3125 314.683594 157.5 C 314.683594 70.6875 244.3125 0.316406 157.5 0.316406 Z M 157.5 0.316406 " clip-rule="nonzero"/></clipPath><clipPath id="72a90a581b"><rect x="0" width="315" y="0" height="315"/></clipPath><clipPath id="0c5353d57d"><path d="M 33.734375 33.734375 L 341.261719 33.734375 L 341.261719 341.261719 L 33.734375 341.261719 Z M 33.734375 33.734375 " clip-rule="nonzero"/></clipPath><clipPath id="7bcb65f095"><path d="M 187.5 33.734375 C 102.578125 33.734375 33.734375 102.578125 33.734375 187.5 C 33.734375 272.421875 102.578125 341.261719 187.5 341.261719 C 272.421875 341.261719 341.261719 272.421875 341.261719 187.5 C 341.261719 102.578125 272.421875 33.734375 187.5 33.734375 Z M 187.5 33.734375 " clip-rule="nonzero"/></clipPath><clipPath id="12fbeeed0f"><path d="M 0.734375 0.734375 L 308.261719 0.734375 L 308.261719 308.261719 L 0.734375 308.261719 Z M 0.734375 0.734375 " clip-rule="nonzero"/></clipPath><clipPath id="0d11492fec"><path d="M 154.5 0.734375 C 69.578125 0.734375 0.734375 69.578125 0.734375 154.5 C 0.734375 239.421875 69.578125 308.261719 154.5 308.261719 C 239.421875 308.261719 308.261719 239.421875 308.261719 154.5 C 308.261719 69.578125 239.421875 0.734375 154.5 0.734375 Z M 154.5 0.734375 " clip-rule="nonzero"/></clipPath><clipPath id="d54f433384"><rect x="0" width="309" y="0" height="309"/></clipPath><clipPath id="0bc1fa56dc"><rect x="0" width="188" y="0" height="306"/></clipPath></defs><g clip-path="url(#d769565f48)"><g clip-path="url(#07e1988936)"><g transform="matrix(1, 0, 0, 1, 23, 23)"><g clip-path="url(#57987e6c10)"><g clip-path="url(#38422c0797)"><g clip-path="url(#34013ea84d)"><path fill="#ff3131" d="M 0.472656 0.472656 L 328.527344 0.472656 L 328.527344 328.527344 L 0.472656 328.527344 Z M 0.472656 0.472656 " fill-opacity="1" fill-rule="nonzero"/></g></g></g></g></g></g><g clip-path="url(#6db18be850)"><g clip-path="url(#2a37090773)"><g transform="matrix(1, 0, 0, 1, 30, 30)"><g clip-path="url(#72a90a581b)"><g clip-path="url(#60738eb40e)"><g clip-path="url(#dd670e800b)"><path fill="#ffffff" d="M 0.316406 0.316406 L 314.683594 0.316406 L 314.683594 314.683594 L 0.316406 314.683594 Z M 0.316406 0.316406 " fill-opacity="1" fill-rule="nonzero"/></g></g></g></g></g></g><g clip-path="url(#0c5353d57d)"><g clip-path="url(#7bcb65f095)"><g transform="matrix(1, 0, 0, 1, 33, 33)"><g clip-path="url(#d54f433384)"><g clip-path="url(#12fbeeed0f)"><g clip-path="url(#0d11492fec)"><path fill="#ff5757" d="M 0.734375 0.734375 L 308.261719 0.734375 L 308.261719 308.261719 L 0.734375 308.261719 Z M 0.734375 0.734375 " fill-opacity="1" fill-rule="nonzero"/></g></g></g></g></g></g><g transform="matrix(1, 0, 0, 1, 94, 8)"><g clip-path="url(#0bc1fa56dc)"><g fill="#ffffff" fill-opacity="1"><g transform="translate(0.256146, 245.379048)"><g><path d="M 93.109375 -150.984375 C 120.128906 -150.984375 140.769531 -144.644531 155.03125 -131.96875 C 169.289062 -119.289062 176.421875 -99.90625 176.421875 -73.8125 L 176.421875 -64.3125 L 65.703125 -64.3125 C 65.703125 -53.6875 68.078125 -45.671875 72.828125 -40.265625 C 77.585938 -34.859375 85.09375 -32.15625 95.34375 -32.15625 C 104.664062 -32.15625 111.515625 -34.109375 115.890625 -38.015625 C 120.273438 -41.929688 122.46875 -47.15625 122.46875 -53.6875 L 176.421875 -53.6875 C 176.421875 -35.789062 169.617188 -21.804688 156.015625 -11.734375 C 142.410156 -1.671875 122.554688 3.359375 96.453125 3.359375 C 69.054688 3.359375 47.804688 -3.023438 32.703125 -15.796875 C 17.609375 -28.566406 10.0625 -47.90625 10.0625 -73.8125 C 10.0625 -99.164062 17.421875 -118.363281 32.140625 -131.40625 C 46.867188 -144.457031 67.191406 -150.984375 93.109375 -150.984375 Z M 95.34375 -115.46875 C 77.820312 -115.46875 68.035156 -107.175781 65.984375 -90.59375 L 120.21875 -90.59375 C 120.21875 -98.226562 118.023438 -104.28125 113.640625 -108.75 C 109.265625 -113.226562 103.164062 -115.46875 95.34375 -115.46875 Z M 95.34375 -115.46875 "/></g></g></g></g></g></svg>