<svg xmlns="http://www.w3.org/2000/svg" xmlns:xlink="http://www.w3.org/1999/xlink" width="500" zoomAndPan="magnify" viewBox="0 0 375 374.999991" height="500" preserveAspectRatio="xMidYMid meet" version="1.0"><defs><clipPath id="582ab76283"><path d="M 23.472656 23.472656 L 351.527344 23.472656 L 351.527344 351.527344 L 23.472656 351.527344 Z M 23.472656 23.472656 " clip-rule="nonzero"/></clipPath><clipPath id="214d2fc69d"><path d="M 187.5 23.472656 C 96.910156 23.472656 23.472656 96.910156 23.472656 187.5 C 23.472656 278.089844 96.910156 351.527344 187.5 351.527344 C 278.089844 351.527344 351.527344 278.089844 351.527344 187.5 C 351.527344 96.910156 278.089844 23.472656 187.5 23.472656 Z M 187.5 23.472656 " clip-rule="nonzero"/></clipPath><clipPath id="a3b3106ff0"><path d="M 0.472656 0.472656 L 328.527344 0.472656 L 328.527344 328.527344 L 0.472656 328.527344 Z M 0.472656 0.472656 " clip-rule="nonzero"/></clipPath><clipPath id="381fc42920"><path d="M 164.5 0.472656 C 73.910156 0.472656 0.472656 73.910156 0.472656 164.5 C 0.472656 255.089844 73.910156 328.527344 164.5 328.527344 C 255.089844 328.527344 328.527344 255.089844 328.527344 164.5 C 328.527344 73.910156 255.089844 0.472656 164.5 0.472656 Z M 164.5 0.472656 " clip-rule="nonzero"/></clipPath><clipPath id="743b9e6e60"><rect x="0" width="329" y="0" height="329"/></clipPath><clipPath id="fdcd29e333"><path d="M 30.316406 30.316406 L 344.683594 30.316406 L 344.683594 344.683594 L 30.316406 344.683594 Z M 30.316406 30.316406 " clip-rule="nonzero"/></clipPath><clipPath id="731bd4c86b"><path d="M 187.5 30.316406 C 100.6875 30.316406 30.316406 100.6875 30.316406 187.5 C 30.316406 274.3125 100.6875 344.683594 187.5 344.683594 C 274.3125 344.683594 344.683594 274.3125 344.683594 187.5 C 344.683594 100.6875 274.3125 30.316406 187.5 30.316406 Z M 187.5 30.316406 " clip-rule="nonzero"/></clipPath><clipPath id="ed662d9567"><path d="M 0.316406 0.316406 L 314.683594 0.316406 L 314.683594 314.683594 L 0.316406 314.683594 Z M 0.316406 0.316406 " clip-rule="nonzero"/></clipPath><clipPath id="85fb20ff1b"><path d="M 157.5 0.316406 C 70.6875 0.316406 0.316406 70.6875 0.316406 157.5 C 0.316406 244.3125 70.6875 314.683594 157.5 314.683594 C 244.3125 314.683594 314.683594 244.3125 314.683594 157.5 C 314.683594 70.6875 244.3125 0.316406 157.5 0.316406 Z M 157.5 0.316406 " clip-rule="nonzero"/></clipPath><clipPath id="6620574b37"><rect x="0" width="315" y="0" height="315"/></clipPath><clipPath id="17625546ae"><path d="M 33.734375 33.734375 L 341.261719 33.734375 L 341.261719 341.261719 L 33.734375 341.261719 Z M 33.734375 33.734375 " clip-rule="nonzero"/></clipPath><clipPath id="208564fc76"><path d="M 187.5 33.734375 C 102.578125 33.734375 33.734375 102.578125 33.734375 187.5 C 33.734375 272.421875 102.578125 341.261719 187.5 341.261719 C 272.421875 341.261719 341.261719 272.421875 341.261719 187.5 C 341.261719 102.578125 272.421875 33.734375 187.5 33.734375 Z M 187.5 33.734375 " clip-rule="nonzero"/></clipPath><clipPath id="39fa8bdd9d"><path d="M 0.734375 0.734375 L 308.261719 0.734375 L 308.261719 308.261719 L 0.734375 308.261719 Z M 0.734375 0.734375 " clip-rule="nonzero"/></clipPath><clipPath id="9c29b43bf2"><path d="M 154.5 0.734375 C 69.578125 0.734375 0.734375 69.578125 0.734375 154.5 C 0.734375 239.421875 69.578125 308.261719 154.5 308.261719 C 239.421875 308.261719 308.261719 239.421875 308.261719 154.5 C 308.261719 69.578125 239.421875 0.734375 154.5 0.734375 Z M 154.5 0.734375 " clip-rule="nonzero"/></clipPath><clipPath id="9bb63bbde2"><rect x="0" width="309" y="0" height="309"/></clipPath><clipPath id="28cf13d149"><path d="M 118.886719 118.886719 L 256.136719 118.886719 L 256.136719 256.136719 L 118.886719 256.136719 Z M 118.886719 118.886719 " clip-rule="nonzero"/></clipPath></defs><g clip-path="url(#582ab76283)"><g clip-path="url(#214d2fc69d)"><g transform="matrix(1, 0, 0, 1, 23, 23)"><g clip-path="url(#743b9e6e60)"><g clip-path="url(#a3b3106ff0)"><g clip-path="url(#381fc42920)"><path fill="#ff3131" d="M 0.472656 0.472656 L 328.527344 0.472656 L 328.527344 328.527344 L 0.472656 328.527344 Z M 0.472656 0.472656 " fill-opacity="1" fill-rule="nonzero"/></g></g></g></g></g></g><g clip-path="url(#fdcd29e333)"><g clip-path="url(#731bd4c86b)"><g transform="matrix(1, 0, 0, 1, 30, 30)"><g clip-path="url(#6620574b37)"><g clip-path="url(#ed662d9567)"><g clip-path="url(#85fb20ff1b)"><path fill="#ffffff" d="M 0.316406 0.316406 L 314.683594 0.316406 L 314.683594 314.683594 L 0.316406 314.683594 Z M 0.316406 0.316406 " fill-opacity="1" fill-rule="nonzero"/></g></g></g></g></g></g><g clip-path="url(#17625546ae)"><g clip-path="url(#208564fc76)"><g transform="matrix(1, 0, 0, 1, 33, 33)"><g clip-path="url(#9bb63bbde2)"><g clip-path="url(#39fa8bdd9d)"><g clip-path="url(#9c29b43bf2)"><path fill="#ff5757" d="M 0.734375 0.734375 L 308.261719 0.734375 L 308.261719 308.261719 L 0.734375 308.261719 Z M 0.734375 0.734375 " fill-opacity="1" fill-rule="nonzero"/></g></g></g></g></g></g><g clip-path="url(#28cf13d149)"><path fill="#ffffff" d="M 256.101562 144.808594 L 230.171875 118.886719 L 187.5 161.558594 L 144.8125 118.886719 L 118.886719 144.808594 L 161.566406 187.496094 L 118.886719 230.171875 L 144.8125 256.101562 L 187.5 213.421875 L 230.171875 256.101562 L 256.101562 230.171875 L 213.421875 187.496094 Z M 256.101562 144.808594 " fill-opacity="1" fill-rule="nonzero"/></g></svg>