<svg xmlns="http://www.w3.org/2000/svg" xmlns:xlink="http://www.w3.org/1999/xlink" width="500" zoomAndPan="magnify" viewBox="0 0 375 374.999991" height="500" preserveAspectRatio="xMidYMid meet" version="1.0"><defs><clipPath id="55064c76b5"><path d="M 23.472656 23.472656 L 351.527344 23.472656 L 351.527344 351.527344 L 23.472656 351.527344 Z M 23.472656 23.472656 " clip-rule="nonzero"/></clipPath><clipPath id="dbbfc39323"><path d="M 187.5 23.472656 C 96.910156 23.472656 23.472656 96.910156 23.472656 187.5 C 23.472656 278.089844 96.910156 351.527344 187.5 351.527344 C 278.089844 351.527344 351.527344 278.089844 351.527344 187.5 C 351.527344 96.910156 278.089844 23.472656 187.5 23.472656 Z M 187.5 23.472656 " clip-rule="nonzero"/></clipPath><clipPath id="ef20f22bc6"><path d="M 0.472656 0.472656 L 328.527344 0.472656 L 328.527344 328.527344 L 0.472656 328.527344 Z M 0.472656 0.472656 " clip-rule="nonzero"/></clipPath><clipPath id="9bbee0cad7"><path d="M 164.5 0.472656 C 73.910156 0.472656 0.472656 73.910156 0.472656 164.5 C 0.472656 255.089844 73.910156 328.527344 164.5 328.527344 C 255.089844 328.527344 328.527344 255.089844 328.527344 164.5 C 328.527344 73.910156 255.089844 0.472656 164.5 0.472656 Z M 164.5 0.472656 " clip-rule="nonzero"/></clipPath><clipPath id="3af32fbea1"><rect x="0" width="329" y="0" height="329"/></clipPath><clipPath id="e9abe23be7"><path d="M 30.316406 30.316406 L 344.683594 30.316406 L 344.683594 344.683594 L 30.316406 344.683594 Z M 30.316406 30.316406 " clip-rule="nonzero"/></clipPath><clipPath id="6ce5d3a03c"><path d="M 187.5 30.316406 C 100.6875 30.316406 30.316406 100.6875 30.316406 187.5 C 30.316406 274.3125 100.6875 344.683594 187.5 344.683594 C 274.3125 344.683594 344.683594 274.3125 344.683594 187.5 C 344.683594 100.6875 274.3125 30.316406 187.5 30.316406 Z M 187.5 30.316406 " clip-rule="nonzero"/></clipPath><clipPath id="a261a02254"><path d="M 0.316406 0.316406 L 314.683594 0.316406 L 314.683594 314.683594 L 0.316406 314.683594 Z M 0.316406 0.316406 " clip-rule="nonzero"/></clipPath><clipPath id="21292c6497"><path d="M 157.5 0.316406 C 70.6875 0.316406 0.316406 70.6875 0.316406 157.5 C 0.316406 244.3125 70.6875 314.683594 157.5 314.683594 C 244.3125 314.683594 314.683594 244.3125 314.683594 157.5 C 314.683594 70.6875 244.3125 0.316406 157.5 0.316406 Z M 157.5 0.316406 " clip-rule="nonzero"/></clipPath><clipPath id="a771498776"><rect x="0" width="315" y="0" height="315"/></clipPath><clipPath id="d962e98190"><path d="M 33.734375 33.734375 L 341.261719 33.734375 L 341.261719 341.261719 L 33.734375 341.261719 Z M 33.734375 33.734375 " clip-rule="nonzero"/></clipPath><clipPath id="944b9ae852"><path d="M 187.5 33.734375 C 102.578125 33.734375 33.734375 102.578125 33.734375 187.5 C 33.734375 272.421875 102.578125 341.261719 187.5 341.261719 C 272.421875 341.261719 341.261719 272.421875 341.261719 187.5 C 341.261719 102.578125 272.421875 33.734375 187.5 33.734375 Z M 187.5 33.734375 " clip-rule="nonzero"/></clipPath><clipPath id="49fb60957b"><path d="M 0.734375 0.734375 L 308.261719 0.734375 L 308.261719 308.261719 L 0.734375 308.261719 Z M 0.734375 0.734375 " clip-rule="nonzero"/></clipPath><clipPath id="f9323d1f84"><path d="M 154.5 0.734375 C 69.578125 0.734375 0.734375 69.578125 0.734375 154.5 C 0.734375 239.421875 69.578125 308.261719 154.5 308.261719 C 239.421875 308.261719 308.261719 239.421875 308.261719 154.5 C 308.261719 69.578125 239.421875 0.734375 154.5 0.734375 Z M 154.5 0.734375 " clip-rule="nonzero"/></clipPath><clipPath id="a0c9fb2f94"><rect x="0" width="309" y="0" height="309"/></clipPath><clipPath id="97f30e2d57"><path d="M 102 119.945312 L 273 119.945312 L 273 254.945312 L 102 254.945312 Z M 102 119.945312 " clip-rule="nonzero"/></clipPath></defs><g clip-path="url(#55064c76b5)"><g clip-path="url(#dbbfc39323)"><g transform="matrix(1, 0, 0, 1, 23, 23)"><g clip-path="url(#3af32fbea1)"><g clip-path="url(#ef20f22bc6)"><g clip-path="url(#9bbee0cad7)"><path fill="#00bf63" d="M 0.472656 0.472656 L 328.527344 0.472656 L 328.527344 328.527344 L 0.472656 328.527344 Z M 0.472656 0.472656 " fill-opacity="1" fill-rule="nonzero"/></g></g></g></g></g></g><g clip-path="url(#e9abe23be7)"><g clip-path="url(#6ce5d3a03c)"><g transform="matrix(1, 0, 0, 1, 30, 30)"><g clip-path="url(#a771498776)"><g clip-path="url(#a261a02254)"><g clip-path="url(#21292c6497)"><path fill="#ffffff" d="M 0.316406 0.316406 L 314.683594 0.316406 L 314.683594 314.683594 L 0.316406 314.683594 Z M 0.316406 0.316406 " fill-opacity="1" fill-rule="nonzero"/></g></g></g></g></g></g><g clip-path="url(#d962e98190)"><g clip-path="url(#944b9ae852)"><g transform="matrix(1, 0, 0, 1, 33, 33)"><g clip-path="url(#a0c9fb2f94)"><g clip-path="url(#49fb60957b)"><g clip-path="url(#f9323d1f84)"><path fill="#7ed957" d="M 0.734375 0.734375 L 308.261719 0.734375 L 308.261719 308.261719 L 0.734375 308.261719 Z M 0.734375 0.734375 " fill-opacity="1" fill-rule="nonzero"/></g></g></g></g></g></g><g clip-path="url(#97f30e2d57)"><path fill="#ffffff" d="M 160.878906 255.050781 L 102.347656 196.511719 L 125.667969 173.183594 L 160.878906 208.390625 L 249.328125 119.945312 L 272.652344 143.265625 Z M 160.878906 255.050781 " fill-opacity="1" fill-rule="nonzero"/></g></svg>