<svg xmlns="http://www.w3.org/2000/svg" xmlns:xlink="http://www.w3.org/1999/xlink" width="1000" zoomAndPan="magnify" viewBox="0 0 750 749.999995" height="1000" preserveAspectRatio="xMidYMid meet" version="1.0"><defs><g/><clipPath id="6b5fd1cb13"><rect x="0" width="694" y="0" height="236"/></clipPath></defs><g transform="matrix(1, 0, 0, 1, 28, 257)"><g clip-path="url(#6b5fd1cb13)"><g fill="#0046ff" fill-opacity="1"><g transform="translate(1.949087, 176.532819)"><g><path d="M 137.34375 -168.421875 C 140.300781 -168.421875 142.59375 -167.234375 144.21875 -164.859375 C 145.851562 -162.492188 146.226562 -159.984375 145.34375 -157.328125 L 92.078125 -5.546875 L 90.3125 0 L 77.890625 0 C 71.972656 0 66.644531 -1.695312 61.90625 -5.09375 C 57.175781 -8.5 53.847656 -12.941406 51.921875 -18.421875 L -0.671875 -168.421875 C -0.671875 -168.421875 0.582031 -168.421875 3.09375 -168.421875 C 5.613281 -168.421875 8.722656 -168.421875 12.421875 -168.421875 C 16.117188 -168.421875 19.671875 -168.421875 23.078125 -168.421875 C 26.773438 -168.421875 30.066406 -167.382812 32.953125 -165.3125 C 35.835938 -163.238281 37.867188 -160.578125 39.046875 -157.328125 L 80.546875 -38.609375 L 114.5 -135.578125 C 117.007812 -142.523438 117.96875 -148.441406 117.375 -153.328125 C 116.789062 -158.210938 113.90625 -163.242188 108.71875 -168.421875 L 126.03125 -168.421875 C 126.03125 -168.421875 127.210938 -168.421875 129.578125 -168.421875 C 131.953125 -168.421875 134.539062 -168.421875 137.34375 -168.421875 Z M 137.34375 -168.421875 "/></g></g></g><g fill="#0046ff" fill-opacity="1"><g transform="translate(134.194144, 176.532819)"><g><path d="M 64.34375 -19.078125 C 71.300781 -19.078125 77.515625 -20.960938 82.984375 -24.734375 C 88.460938 -28.515625 92.015625 -33.285156 93.640625 -39.046875 C 96.597656 -35.941406 98.113281 -31.984375 98.1875 -27.171875 C 98.257812 -22.367188 96.519531 -17.601562 92.96875 -12.875 C 89.863281 -8.582031 85.203125 -4.992188 78.984375 -2.109375 C 72.773438 0.773438 65.972656 2.21875 58.578125 2.21875 C 46.453125 2.21875 36.359375 -0.625 28.296875 -6.3125 C 20.234375 -12.007812 14.203125 -19.484375 10.203125 -28.734375 C 6.210938 -37.984375 4.21875 -48.078125 4.21875 -59.015625 C 4.21875 -69.816406 6.25 -79.835938 10.3125 -89.078125 C 14.382812 -98.328125 20.488281 -105.800781 28.625 -111.5 C 36.757812 -117.195312 46.890625 -120.046875 59.015625 -120.046875 C 71.890625 -120.046875 82.242188 -116.675781 90.078125 -109.9375 C 97.921875 -103.207031 101.84375 -94.519531 101.84375 -83.875 C 101.84375 -76.332031 100.066406 -70.007812 96.515625 -64.90625 C 92.972656 -59.800781 88.425781 -55.691406 82.875 -52.578125 C 77.332031 -49.472656 71.5625 -47.109375 65.5625 -45.484375 C 59.570312 -43.859375 53.988281 -42.710938 48.8125 -42.046875 C 43.632812 -41.378906 39.789062 -40.898438 37.28125 -40.609375 C 39.789062 -33.503906 43.5625 -28.140625 48.59375 -24.515625 C 53.625 -20.890625 58.875 -19.078125 64.34375 -19.078125 Z M 34.171875 -59.015625 C 34.171875 -55.171875 34.539062 -51.550781 35.28125 -48.15625 C 49.039062 -52.4375 58.84375 -57.757812 64.6875 -64.125 C 70.53125 -70.488281 73.453125 -77.144531 73.453125 -84.09375 C 73.453125 -91.488281 72.15625 -96.847656 69.5625 -100.171875 C 66.96875 -103.503906 63.082031 -105.171875 57.90625 -105.171875 C 54.0625 -105.171875 50.328125 -103.65625 46.703125 -100.625 C 43.078125 -97.59375 40.082031 -92.675781 37.71875 -85.875 C 35.351562 -79.070312 34.171875 -70.117188 34.171875 -59.015625 Z M 34.171875 -59.015625 "/></g></g></g><g fill="#0046ff" fill-opacity="1"><g transform="translate(240.25675, 176.532819)"><g><path d="M 85.421875 -120.046875 C 90.160156 -120.046875 93.820312 -119.007812 96.40625 -116.9375 C 99 -114.863281 100.847656 -112.347656 101.953125 -109.390625 C 103.066406 -106.429688 103.734375 -103.4375 103.953125 -100.40625 C 104.171875 -97.375 104.28125 -94.75 104.28125 -92.53125 L 82.09375 -72.34375 C 79.875 -71.445312 77.765625 -71.59375 75.765625 -72.78125 C 73.773438 -73.96875 72.78125 -75.671875 72.78125 -77.890625 C 72.78125 -84.242188 71.925781 -88.566406 70.21875 -90.859375 C 68.519531 -93.148438 65.523438 -93.148438 61.234375 -90.859375 C 56.953125 -88.566406 50.960938 -83.503906 43.265625 -75.671875 L 43.265625 -31.515625 C 43.265625 -27.367188 43.484375 -23.113281 43.921875 -18.75 C 44.367188 -14.382812 44.925781 -10.5 45.59375 -7.09375 C 46.257812 -3.695312 46.890625 -1.332031 47.484375 0 L 28.625 0 C 23.882812 0 19.890625 -1.625 16.640625 -4.875 C 13.390625 -8.132812 11.765625 -12.128906 11.765625 -16.859375 L 11.765625 -86.3125 C 11.765625 -90.457031 11.539062 -94.710938 11.09375 -99.078125 C 10.644531 -103.441406 10.125 -107.320312 9.53125 -110.71875 C 8.945312 -114.125 8.285156 -116.492188 7.546875 -117.828125 L 26.40625 -117.828125 C 31.132812 -117.828125 35.125 -116.195312 38.375 -112.9375 C 41.632812 -109.6875 43.265625 -105.691406 43.265625 -100.953125 L 43.265625 -88.3125 C 49.628906 -94.675781 55.175781 -100.222656 59.90625 -104.953125 C 64.644531 -109.691406 69.046875 -113.390625 73.109375 -116.046875 C 77.179688 -118.710938 81.285156 -120.046875 85.421875 -120.046875 Z M 85.421875 -120.046875 "/></g></g></g><g fill="#0046ff" fill-opacity="1"><g transform="translate(342.991018, 176.532819)"><g><path d="M 43.265625 -100.953125 L 43.265625 -31.515625 C 43.265625 -27.367188 43.484375 -23.113281 43.921875 -18.75 C 44.367188 -14.382812 44.925781 -10.5 45.59375 -7.09375 C 46.257812 -3.695312 46.890625 -1.332031 47.484375 0 L 28.625 0 C 23.882812 0 19.890625 -1.625 16.640625 -4.875 C 13.390625 -8.132812 11.765625 -12.128906 11.765625 -16.859375 L 11.765625 -86.3125 C 11.765625 -90.457031 11.539062 -94.710938 11.09375 -99.078125 C 10.644531 -103.441406 10.125 -107.320312 9.53125 -110.71875 C 8.945312 -114.125 8.285156 -116.492188 7.546875 -117.828125 L 26.40625 -117.828125 C 31.132812 -117.828125 35.125 -116.195312 38.375 -112.9375 C 41.632812 -109.6875 43.265625 -105.691406 43.265625 -100.953125 Z M 25.296875 -138.90625 L 9.09375 -138.90625 C 12.9375 -147.78125 16.226562 -154.285156 18.96875 -158.421875 C 21.707031 -162.566406 24.40625 -165.226562 27.0625 -166.40625 C 29.726562 -167.59375 32.835938 -168.265625 36.390625 -168.421875 L 52.59375 -168.421875 C 48.738281 -159.390625 45.441406 -152.835938 42.703125 -148.765625 C 39.972656 -144.703125 37.273438 -142.078125 34.609375 -140.890625 C 31.953125 -139.710938 28.847656 -139.050781 25.296875 -138.90625 Z M 25.296875 -138.90625 "/></g></g></g><g fill="#0046ff" fill-opacity="1"><g transform="translate(398.24119, 176.532819)"><g><path d="M 53.703125 -46.375 C 53.703125 -41.789062 54.179688 -37.316406 55.140625 -32.953125 C 56.097656 -28.585938 57.722656 -24.664062 60.015625 -21.1875 C 62.304688 -17.707031 65.488281 -15.15625 69.5625 -13.53125 C 73.632812 -11.90625 78.847656 -11.609375 85.203125 -12.640625 C 80.910156 -7.316406 75.953125 -3.546875 70.328125 -1.328125 C 64.710938 0.890625 59.171875 2.070312 53.703125 2.21875 C 48.078125 2.21875 42.859375 1 38.046875 -1.4375 C 33.242188 -3.882812 29.398438 -8.285156 26.515625 -14.640625 C 23.628906 -21.003906 22.113281 -30.175781 21.96875 -42.15625 L 21.96875 -100.953125 L -4.21875 -100.953125 L -0.890625 -109.390625 C 0.148438 -111.910156 1.816406 -113.945312 4.109375 -115.5 C 6.398438 -117.050781 8.875 -117.828125 11.53125 -117.828125 L 21.96875 -117.828125 L 21.96875 -128.46875 C 21.96875 -132.613281 21.78125 -136.867188 21.40625 -141.234375 C 21.039062 -145.597656 20.523438 -149.441406 19.859375 -152.765625 C 19.191406 -156.097656 18.488281 -158.503906 17.75 -159.984375 L 36.828125 -159.984375 C 41.421875 -159.984375 45.378906 -158.316406 48.703125 -154.984375 C 52.035156 -151.660156 53.703125 -147.707031 53.703125 -143.125 L 53.703125 -117.828125 L 83.203125 -117.828125 L 79.875 -109.609375 C 78.84375 -106.953125 77.179688 -104.882812 74.890625 -103.40625 C 72.597656 -101.925781 70.046875 -101.1875 67.234375 -101.1875 L 53.703125 -100.953125 Z M 53.703125 -46.375 "/></g></g></g><g fill="#0046ff" fill-opacity="1"><g transform="translate(479.896074, 176.532819)"><g><path d="M 103.84375 -31.28125 C 103.84375 -27.144531 104.023438 -22.894531 104.390625 -18.53125 C 104.765625 -14.164062 105.285156 -10.28125 105.953125 -6.875 C 106.617188 -3.476562 107.320312 -1.113281 108.0625 0.21875 L 88.984375 0.21875 C 84.390625 0.21875 80.46875 -1.40625 77.21875 -4.65625 C 73.96875 -7.914062 72.34375 -11.910156 72.34375 -16.640625 L 72.34375 -69.453125 C 72.34375 -71.078125 72.265625 -72.628906 72.109375 -74.109375 C 67.078125 -72.335938 61.785156 -69.75 56.234375 -66.34375 C 50.691406 -62.9375 46 -58.828125 42.15625 -54.015625 C 38.3125 -49.210938 36.390625 -43.78125 36.390625 -37.71875 C 36.390625 -31.0625 37.941406 -26.21875 41.046875 -23.1875 C 44.148438 -20.15625 47.992188 -18.820312 52.578125 -19.1875 C 57.171875 -19.5625 61.613281 -21.523438 65.90625 -25.078125 C 65.3125 -19.304688 63.421875 -14.382812 60.234375 -10.3125 C 57.054688 -6.25 53.359375 -3.144531 49.140625 -1 C 44.929688 1.144531 40.828125 2.21875 36.828125 2.21875 C 30.328125 2.21875 24.707031 0.59375 19.96875 -2.65625 C 15.238281 -5.914062 11.539062 -10.132812 8.875 -15.3125 C 6.207031 -20.488281 4.875 -25.890625 4.875 -31.515625 C 4.875 -38.609375 6.832031 -44.742188 10.75 -49.921875 C 14.675781 -55.097656 19.859375 -59.609375 26.296875 -63.453125 C 32.734375 -67.304688 39.796875 -70.785156 47.484375 -73.890625 C 55.171875 -76.992188 62.863281 -80.097656 70.5625 -83.203125 C 69.082031 -88.679688 66.34375 -92.898438 62.34375 -95.859375 C 58.351562 -98.816406 52.882812 -100.296875 45.9375 -100.296875 C 41.34375 -100.296875 37.085938 -99.476562 33.171875 -97.84375 C 29.253906 -96.21875 26.070312 -94 23.625 -91.1875 C 21.1875 -88.382812 19.96875 -85.28125 19.96875 -81.875 C 16.125 -84.09375 13.867188 -87.269531 13.203125 -91.40625 C 12.535156 -95.550781 13.644531 -99.84375 16.53125 -104.28125 C 19.414062 -108.726562 24.148438 -112.46875 30.734375 -115.5 C 37.316406 -118.53125 45.859375 -120.046875 56.359375 -120.046875 C 71.003906 -120.046875 82.539062 -115.828125 90.96875 -107.390625 C 99.40625 -98.960938 103.695312 -86.316406 103.84375 -69.453125 Z M 103.84375 -31.28125 "/></g></g></g><g fill="#0046ff" fill-opacity="1"><g transform="translate(593.946684, 176.532819)"><g><path d="M 49.03125 2.21875 C 42.082031 2.21875 35.570312 1.179688 29.5 -0.890625 C 23.4375 -2.960938 18.257812 -5.660156 13.96875 -8.984375 C 9.6875 -12.316406 6.84375 -15.976562 5.4375 -19.96875 C 4.03125 -23.96875 4.582031 -27.890625 7.09375 -31.734375 C 8.875 -34.242188 11.5 -36.71875 14.96875 -39.15625 C 18.445312 -41.601562 22.40625 -43.046875 26.84375 -43.484375 C 26.695312 -37.273438 27.953125 -31.800781 30.609375 -27.0625 C 33.273438 -22.332031 36.566406 -18.671875 40.484375 -16.078125 C 44.410156 -13.492188 48 -12.203125 51.25 -12.203125 C 55.84375 -12.203125 59.617188 -13.160156 62.578125 -15.078125 C 65.535156 -17.003906 67.015625 -19.742188 67.015625 -23.296875 C 67.015625 -26.253906 65.203125 -29.101562 61.578125 -31.84375 C 57.953125 -34.582031 53.03125 -37.539062 46.8125 -40.71875 C 40.601562 -43.894531 33.65625 -47.628906 25.96875 -51.921875 C 19.457031 -55.472656 14.203125 -59.6875 10.203125 -64.5625 C 6.210938 -69.445312 4.21875 -75.367188 4.21875 -82.328125 C 4.21875 -88.828125 6.140625 -94.960938 9.984375 -100.734375 C 13.828125 -106.503906 19.078125 -111.203125 25.734375 -114.828125 C 32.390625 -118.453125 39.863281 -120.265625 48.15625 -120.265625 C 55.695312 -120.265625 62.425781 -119.082031 68.34375 -116.71875 C 74.257812 -114.351562 79.101562 -111.394531 82.875 -107.84375 C 86.644531 -104.289062 89.007812 -100.664062 89.96875 -96.96875 C 90.9375 -93.269531 90.238281 -90.085938 87.875 -87.421875 C 86.6875 -86.085938 84.613281 -84.789062 81.65625 -83.53125 C 78.695312 -82.28125 75.515625 -81.25 72.109375 -80.4375 C 68.710938 -79.625 65.753906 -79.289062 63.234375 -79.4375 C 63.378906 -83.726562 62.894531 -87.941406 61.78125 -92.078125 C 60.675781 -96.222656 58.71875 -99.625 55.90625 -102.28125 C 53.101562 -104.945312 49.257812 -106.28125 44.375 -106.28125 C 40.082031 -106.28125 36.492188 -105.097656 33.609375 -102.734375 C 30.734375 -100.367188 29.296875 -97.410156 29.296875 -93.859375 C 29.296875 -90.304688 31.21875 -86.863281 35.0625 -83.53125 C 38.90625 -80.207031 44.082031 -76.992188 50.59375 -73.890625 C 55.46875 -71.523438 60.492188 -69.15625 65.671875 -66.78125 C 70.859375 -64.414062 75.628906 -61.789062 79.984375 -58.90625 C 84.347656 -56.019531 87.863281 -52.503906 90.53125 -48.359375 C 93.195312 -44.222656 94.53125 -39.125 94.53125 -33.0625 C 94.53125 -26.40625 92.382812 -20.410156 88.09375 -15.078125 C 83.800781 -9.753906 78.175781 -5.539062 71.21875 -2.4375 C 64.269531 0.664062 56.875 2.21875 49.03125 2.21875 Z M 49.03125 2.21875 "/></g></g></g></g></g></svg>