<svg xmlns="http://www.w3.org/2000/svg" xmlns:xlink="http://www.w3.org/1999/xlink" width="900" zoomAndPan="magnify" viewBox="0 0 675 675.000002" height="900" preserveAspectRatio="xMidYMid meet" version="1.0"><defs><clipPath id="da89dd3acd"><path d="M 67.898438 67.398438 L 607.101562 67.398438 L 607.101562 606.601562 L 67.898438 606.601562 Z M 67.898438 67.398438 " clip-rule="nonzero"/></clipPath><clipPath id="35739c2d34"><path d="M 120.320312 67.398438 L 554.679688 67.398438 C 568.582031 67.398438 581.914062 72.921875 591.746094 82.753906 C 601.578125 92.585938 607.101562 105.917969 607.101562 119.824219 L 607.101562 554.179688 C 607.101562 568.082031 601.578125 581.417969 591.746094 591.246094 C 581.914062 601.078125 568.582031 606.601562 554.679688 606.601562 L 120.320312 606.601562 C 106.417969 606.601562 93.085938 601.078125 83.253906 591.246094 C 73.421875 581.417969 67.898438 568.082031 67.898438 554.179688 L 67.898438 119.824219 C 67.898438 105.917969 73.421875 92.585938 83.253906 82.753906 C 93.085938 72.921875 106.417969 67.398438 120.320312 67.398438 Z M 120.320312 67.398438 " clip-rule="nonzero"/></clipPath><clipPath id="cb82f8a68c"><path d="M 0.898438 0.398438 L 540.101562 0.398438 L 540.101562 539.601562 L 0.898438 539.601562 Z M 0.898438 0.398438 " clip-rule="nonzero"/></clipPath><clipPath id="80021c053d"><path d="M 53.320312 0.398438 L 487.679688 0.398438 C 501.582031 0.398438 514.914062 5.921875 524.746094 15.753906 C 534.578125 25.585938 540.101562 38.917969 540.101562 52.824219 L 540.101562 487.179688 C 540.101562 501.082031 534.578125 514.417969 524.746094 524.246094 C 514.914062 534.078125 501.582031 539.601562 487.679688 539.601562 L 53.320312 539.601562 C 39.417969 539.601562 26.085938 534.078125 16.253906 524.246094 C 6.421875 514.417969 0.898438 501.082031 0.898438 487.179688 L 0.898438 52.824219 C 0.898438 38.917969 6.421875 25.585938 16.253906 15.753906 C 26.085938 5.921875 39.417969 0.398438 53.320312 0.398438 Z M 53.320312 0.398438 " clip-rule="nonzero"/></clipPath><clipPath id="8c6d64300e"><rect x="0" width="541" y="0" height="540"/></clipPath><clipPath id="73b7cbb297"><path d="M 101.292969 100.796875 L 573.707031 100.796875 L 573.707031 573.207031 L 101.292969 573.207031 Z M 101.292969 100.796875 " clip-rule="nonzero"/></clipPath><clipPath id="b0edc8d6ef"><path d="M 337.5 100.796875 C 207.046875 100.796875 101.292969 206.546875 101.292969 337 C 101.292969 467.453125 207.046875 573.207031 337.5 573.207031 C 467.953125 573.207031 573.707031 467.453125 573.707031 337 C 573.707031 206.546875 467.953125 100.796875 337.5 100.796875 Z M 337.5 100.796875 " clip-rule="nonzero"/></clipPath><clipPath id="132a6832d2"><path d="M 0.292969 0.796875 L 472.707031 0.796875 L 472.707031 473.207031 L 0.292969 473.207031 Z M 0.292969 0.796875 " clip-rule="nonzero"/></clipPath><clipPath id="44f762730d"><path d="M 236.5 0.796875 C 106.046875 0.796875 0.292969 106.546875 0.292969 237 C 0.292969 367.453125 106.046875 473.207031 236.5 473.207031 C 366.953125 473.207031 472.707031 367.453125 472.707031 237 C 472.707031 106.546875 366.953125 0.796875 236.5 0.796875 Z M 236.5 0.796875 " clip-rule="nonzero"/></clipPath><clipPath id="2ae21dcdc8"><rect x="0" width="473" y="0" height="474"/></clipPath><clipPath id="7ed381bad5"><path d="M 116.300781 115.800781 L 558.699219 115.800781 L 558.699219 558.199219 L 116.300781 558.199219 Z M 116.300781 115.800781 " clip-rule="nonzero"/></clipPath><clipPath id="50a80b5e85"><path d="M 337.5 115.800781 C 215.335938 115.800781 116.300781 214.835938 116.300781 337 C 116.300781 459.167969 215.335938 558.199219 337.5 558.199219 C 459.664062 558.199219 558.699219 459.167969 558.699219 337 C 558.699219 214.835938 459.664062 115.800781 337.5 115.800781 Z M 337.5 115.800781 " clip-rule="nonzero"/></clipPath><clipPath id="f7d6168dfd"><path d="M 0.300781 0.800781 L 442.699219 0.800781 L 442.699219 443.199219 L 0.300781 443.199219 Z M 0.300781 0.800781 " clip-rule="nonzero"/></clipPath><clipPath id="7da5aa7084"><path d="M 221.5 0.800781 C 99.335938 0.800781 0.300781 99.835938 0.300781 222 C 0.300781 344.167969 99.335938 443.199219 221.5 443.199219 C 343.664062 443.199219 442.699219 344.167969 442.699219 222 C 442.699219 99.835938 343.664062 0.800781 221.5 0.800781 Z M 221.5 0.800781 " clip-rule="nonzero"/></clipPath><clipPath id="c4a3dfe376"><rect x="0" width="443" y="0" height="444"/></clipPath><clipPath id="93ac0874e6"><path d="M 116.300781 115.800781 L 558.695312 115.800781 L 558.695312 558.195312 L 116.300781 558.195312 Z M 116.300781 115.800781 " clip-rule="nonzero"/></clipPath><clipPath id="2d5a639a11"><path d="M 337.496094 115.800781 C 215.332031 115.800781 116.300781 214.835938 116.300781 337 C 116.300781 459.164062 215.332031 558.195312 337.496094 558.195312 C 459.660156 558.195312 558.695312 459.164062 558.695312 337 C 558.695312 214.835938 459.660156 115.800781 337.496094 115.800781 Z M 337.496094 115.800781 " clip-rule="nonzero"/></clipPath><clipPath id="055a015c2f"><path d="M 192 230.828125 L 483 230.828125 L 483 498 L 192 498 Z M 192 230.828125 " clip-rule="nonzero"/></clipPath><clipPath id="b2d5b2cb82"><path d="M 238.570312 244.375 L 436.277344 244.375 L 436.277344 459.308594 L 238.570312 459.308594 Z M 238.570312 244.375 " clip-rule="nonzero"/></clipPath></defs><g clip-path="url(#da89dd3acd)"><g clip-path="url(#35739c2d34)"><g transform="matrix(1, 0, 0, 1, 67, 67)"><g clip-path="url(#8c6d64300e)"><g clip-path="url(#cb82f8a68c)"><g clip-path="url(#80021c053d)"><path fill="#ffffff" d="M 0.898438 0.398438 L 540.101562 0.398438 L 540.101562 539.601562 L 0.898438 539.601562 Z M 0.898438 0.398438 " fill-opacity="1" fill-rule="nonzero"/></g></g></g></g></g></g><g clip-path="url(#73b7cbb297)"><g clip-path="url(#b0edc8d6ef)"><g transform="matrix(1, 0, 0, 1, 101, 100)"><g clip-path="url(#2ae21dcdc8)"><g clip-path="url(#132a6832d2)"><g clip-path="url(#44f762730d)"><path fill="#1800ad" d="M 0.292969 0.796875 L 472.707031 0.796875 L 472.707031 473.207031 L 0.292969 473.207031 Z M 0.292969 0.796875 " fill-opacity="1" fill-rule="nonzero"/></g></g></g></g></g></g><g clip-path="url(#7ed381bad5)"><g clip-path="url(#50a80b5e85)"><g transform="matrix(1, 0, 0, 1, 116, 115)"><g clip-path="url(#c4a3dfe376)"><g clip-path="url(#f7d6168dfd)"><g clip-path="url(#7da5aa7084)"><path fill="#ffffff" d="M 0.300781 0.800781 L 442.699219 0.800781 L 442.699219 443.199219 L 0.300781 443.199219 Z M 0.300781 0.800781 " fill-opacity="1" fill-rule="nonzero"/></g></g></g></g></g></g><g clip-path="url(#93ac0874e6)"><g clip-path="url(#2d5a639a11)"><path stroke-linecap="butt" transform="matrix(0.748891, 0, 0, 0.748891, 116.300148, 115.800908)" fill="none" stroke-linejoin="miter" d="M 295.36487 -0.000169531 C 132.238135 -0.000169531 0.000846123 132.242336 0.000846123 295.36907 C 0.000846123 458.495805 132.238135 590.733094 295.36487 590.733094 C 458.491605 590.733094 590.73411 458.495805 590.73411 295.36907 C 590.73411 132.242336 458.491605 -0.000169531 295.36487 -0.000169531 Z M 295.36487 -0.000169531 " stroke="#0046ff" stroke-width="100" stroke-opacity="1" stroke-miterlimit="4"/></g></g><g clip-path="url(#055a015c2f)"><path fill="#0046ff" d="M 252.035156 230.820312 L 422.960938 230.820312 C 468.542969 230.820312 497.027344 280.15625 474.238281 319.632812 L 388.78125 467.660156 C 365.988281 507.132812 309.019531 507.132812 286.226562 467.660156 L 200.773438 319.632812 C 177.964844 280.171875 206.449219 230.820312 252.035156 230.820312 Z M 252.035156 230.820312 " fill-opacity="1" fill-rule="nonzero"/></g><g clip-path="url(#b2d5b2cb82)"><path fill="#ffffff" d="M 336.871094 244.378906 C 336.871094 244.378906 337.496094 351.753906 238.570312 352.695312 C 238.570312 352.695312 337.496094 351.753906 336.871094 459.132812 C 336.871094 459.132812 336.871094 352.066406 436.421875 351.753906 C 436.421875 351.753906 336.871094 352.066406 336.871094 244.378906 Z M 336.871094 244.378906 " fill-opacity="1" fill-rule="nonzero"/></g></svg>