<svg xmlns="http://www.w3.org/2000/svg" xmlns:xlink="http://www.w3.org/1999/xlink" width="500" zoomAndPan="magnify" viewBox="0 0 375 374.999991" height="500" preserveAspectRatio="xMidYMid meet" version="1.0"><defs><clipPath id="134e4c1239"><path d="M 23.472656 23.472656 L 351.527344 23.472656 L 351.527344 351.527344 L 23.472656 351.527344 Z M 23.472656 23.472656 " clip-rule="nonzero"/></clipPath><clipPath id="ccad9fff73"><path d="M 187.5 23.472656 C 96.910156 23.472656 23.472656 96.910156 23.472656 187.5 C 23.472656 278.089844 96.910156 351.527344 187.5 351.527344 C 278.089844 351.527344 351.527344 278.089844 351.527344 187.5 C 351.527344 96.910156 278.089844 23.472656 187.5 23.472656 Z M 187.5 23.472656 " clip-rule="nonzero"/></clipPath><clipPath id="ae1d2664c5"><path d="M 0.472656 0.472656 L 328.527344 0.472656 L 328.527344 328.527344 L 0.472656 328.527344 Z M 0.472656 0.472656 " clip-rule="nonzero"/></clipPath><clipPath id="69bfbf8c9f"><path d="M 164.5 0.472656 C 73.910156 0.472656 0.472656 73.910156 0.472656 164.5 C 0.472656 255.089844 73.910156 328.527344 164.5 328.527344 C 255.089844 328.527344 328.527344 255.089844 328.527344 164.5 C 328.527344 73.910156 255.089844 0.472656 164.5 0.472656 Z M 164.5 0.472656 " clip-rule="nonzero"/></clipPath><clipPath id="c3f31a9e8c"><rect x="0" width="329" y="0" height="329"/></clipPath><clipPath id="83b2fb9b03"><path d="M 30.316406 30.316406 L 344.683594 30.316406 L 344.683594 344.683594 L 30.316406 344.683594 Z M 30.316406 30.316406 " clip-rule="nonzero"/></clipPath><clipPath id="11956b81c3"><path d="M 187.5 30.316406 C 100.6875 30.316406 30.316406 100.6875 30.316406 187.5 C 30.316406 274.3125 100.6875 344.683594 187.5 344.683594 C 274.3125 344.683594 344.683594 274.3125 344.683594 187.5 C 344.683594 100.6875 274.3125 30.316406 187.5 30.316406 Z M 187.5 30.316406 " clip-rule="nonzero"/></clipPath><clipPath id="99ee034241"><path d="M 0.316406 0.316406 L 314.683594 0.316406 L 314.683594 314.683594 L 0.316406 314.683594 Z M 0.316406 0.316406 " clip-rule="nonzero"/></clipPath><clipPath id="0e1df640f7"><path d="M 157.5 0.316406 C 70.6875 0.316406 0.316406 70.6875 0.316406 157.5 C 0.316406 244.3125 70.6875 314.683594 157.5 314.683594 C 244.3125 314.683594 314.683594 244.3125 314.683594 157.5 C 314.683594 70.6875 244.3125 0.316406 157.5 0.316406 Z M 157.5 0.316406 " clip-rule="nonzero"/></clipPath><clipPath id="c36dcb0f18"><rect x="0" width="315" y="0" height="315"/></clipPath><clipPath id="6246b1881a"><path d="M 33.734375 33.734375 L 341.261719 33.734375 L 341.261719 341.261719 L 33.734375 341.261719 Z M 33.734375 33.734375 " clip-rule="nonzero"/></clipPath><clipPath id="36d1db5f69"><path d="M 187.5 33.734375 C 102.578125 33.734375 33.734375 102.578125 33.734375 187.5 C 33.734375 272.421875 102.578125 341.261719 187.5 341.261719 C 272.421875 341.261719 341.261719 272.421875 341.261719 187.5 C 341.261719 102.578125 272.421875 33.734375 187.5 33.734375 Z M 187.5 33.734375 " clip-rule="nonzero"/></clipPath><clipPath id="3c94ce732c"><path d="M 0.734375 0.734375 L 308.261719 0.734375 L 308.261719 308.261719 L 0.734375 308.261719 Z M 0.734375 0.734375 " clip-rule="nonzero"/></clipPath><clipPath id="cfc7b2e3d8"><path d="M 154.5 0.734375 C 69.578125 0.734375 0.734375 69.578125 0.734375 154.5 C 0.734375 239.421875 69.578125 308.261719 154.5 308.261719 C 239.421875 308.261719 308.261719 239.421875 308.261719 154.5 C 308.261719 69.578125 239.421875 0.734375 154.5 0.734375 Z M 154.5 0.734375 " clip-rule="nonzero"/></clipPath><clipPath id="200cb58cd2"><rect x="0" width="309" y="0" height="309"/></clipPath><clipPath id="4212cb32dd"><path d="M 167.96875 101 L 206.96875 101 L 206.96875 233 L 167.96875 233 Z M 167.96875 101 " clip-rule="nonzero"/></clipPath><clipPath id="daa659afa6"><path d="M 169 237 L 206 237 L 206 273.9375 L 169 273.9375 Z M 169 237 " clip-rule="nonzero"/></clipPath><clipPath id="08c8dcfd0a"><path d="M 131.25 221.578125 L 243.75 221.578125 L 243.75 234.625 L 131.25 234.625 Z M 131.25 221.578125 " clip-rule="nonzero"/></clipPath><clipPath id="c0de138d04"><path d="M 0.25 0.578125 L 112.75 0.578125 L 112.75 13.625 L 0.25 13.625 Z M 0.25 0.578125 " clip-rule="nonzero"/></clipPath><clipPath id="5383c9e40c"><rect x="0" width="113" y="0" height="14"/></clipPath></defs><g clip-path="url(#134e4c1239)"><g clip-path="url(#ccad9fff73)"><g transform="matrix(1, 0, 0, 1, 23, 23)"><g clip-path="url(#c3f31a9e8c)"><g clip-path="url(#ae1d2664c5)"><g clip-path="url(#69bfbf8c9f)"><path fill="#ff914d" d="M 0.472656 0.472656 L 328.527344 0.472656 L 328.527344 328.527344 L 0.472656 328.527344 Z M 0.472656 0.472656 " fill-opacity="1" fill-rule="nonzero"/></g></g></g></g></g></g><g clip-path="url(#83b2fb9b03)"><g clip-path="url(#11956b81c3)"><g transform="matrix(1, 0, 0, 1, 30, 30)"><g clip-path="url(#c36dcb0f18)"><g clip-path="url(#99ee034241)"><g clip-path="url(#0e1df640f7)"><path fill="#ffffff" d="M 0.316406 0.316406 L 314.683594 0.316406 L 314.683594 314.683594 L 0.316406 314.683594 Z M 0.316406 0.316406 " fill-opacity="1" fill-rule="nonzero"/></g></g></g></g></g></g><g clip-path="url(#6246b1881a)"><g clip-path="url(#36d1db5f69)"><g transform="matrix(1, 0, 0, 1, 33, 33)"><g clip-path="url(#200cb58cd2)"><g clip-path="url(#3c94ce732c)"><g clip-path="url(#cfc7b2e3d8)"><path fill="#ffde59" d="M 0.734375 0.734375 L 308.261719 0.734375 L 308.261719 308.261719 L 0.734375 308.261719 Z M 0.734375 0.734375 " fill-opacity="1" fill-rule="nonzero"/></g></g></g></g></g></g><g clip-path="url(#4212cb32dd)"><path fill="#ffffff" d="M 183.128906 232.984375 L 199.75 232.984375 L 207.027344 101.371094 L 167.96875 101.371094 L 175.246094 232.984375 Z M 183.128906 232.984375 " fill-opacity="1" fill-rule="nonzero"/></g><g clip-path="url(#daa659afa6)"><path fill="#ffffff" d="M 205.691406 255.421875 C 205.691406 256.019531 205.664062 256.613281 205.605469 257.207031 C 205.546875 257.800781 205.457031 258.390625 205.34375 258.972656 C 205.226562 259.558594 205.082031 260.136719 204.910156 260.707031 C 204.734375 261.277344 204.535156 261.835938 204.308594 262.386719 C 204.078125 262.9375 203.824219 263.476562 203.542969 264 C 203.261719 264.527344 202.957031 265.035156 202.625 265.53125 C 202.292969 266.027344 201.941406 266.507812 201.5625 266.964844 C 201.183594 267.425781 200.785156 267.867188 200.363281 268.289062 C 199.941406 268.710938 199.5 269.109375 199.039062 269.488281 C 198.578125 269.867188 198.101562 270.222656 197.605469 270.550781 C 197.109375 270.882812 196.597656 271.1875 196.074219 271.46875 C 195.546875 271.75 195.011719 272.003906 194.460938 272.234375 C 193.910156 272.460938 193.347656 272.664062 192.777344 272.835938 C 192.207031 273.007812 191.632812 273.152344 191.046875 273.269531 C 190.460938 273.386719 189.875 273.472656 189.28125 273.53125 C 188.6875 273.589844 188.09375 273.617188 187.496094 273.617188 C 186.902344 273.617188 186.304688 273.589844 185.714844 273.53125 C 185.121094 273.472656 184.53125 273.386719 183.945312 273.269531 C 183.363281 273.152344 182.785156 273.007812 182.214844 272.835938 C 181.644531 272.664062 181.085938 272.460938 180.535156 272.234375 C 179.984375 272.003906 179.445312 271.75 178.917969 271.46875 C 178.394531 271.1875 177.882812 270.882812 177.386719 270.550781 C 176.894531 270.222656 176.414062 269.867188 175.953125 269.488281 C 175.492188 269.109375 175.050781 268.710938 174.632812 268.289062 C 174.210938 267.867188 173.808594 267.425781 173.433594 266.964844 C 173.054688 266.507812 172.699219 266.027344 172.367188 265.53125 C 172.039062 265.035156 171.730469 264.527344 171.449219 264 C 171.167969 263.476562 170.914062 262.9375 170.6875 262.386719 C 170.457031 261.835938 170.257812 261.277344 170.085938 260.707031 C 169.914062 260.136719 169.769531 259.558594 169.652344 258.972656 C 169.535156 258.390625 169.449219 257.800781 169.390625 257.207031 C 169.332031 256.613281 169.300781 256.019531 169.300781 255.421875 C 169.300781 254.828125 169.332031 254.234375 169.390625 253.640625 C 169.449219 253.046875 169.535156 252.457031 169.652344 251.875 C 169.769531 251.289062 169.914062 250.710938 170.085938 250.140625 C 170.257812 249.570312 170.457031 249.011719 170.6875 248.460938 C 170.914062 247.910156 171.167969 247.371094 171.449219 246.847656 C 171.730469 246.320312 172.039062 245.8125 172.367188 245.316406 C 172.699219 244.820312 173.054688 244.339844 173.433594 243.882812 C 173.808594 243.421875 174.210938 242.980469 174.632812 242.558594 C 175.050781 242.136719 175.492188 241.738281 175.953125 241.359375 C 176.414062 240.980469 176.894531 240.625 177.386719 240.296875 C 177.882812 239.964844 178.394531 239.65625 178.917969 239.378906 C 179.445312 239.097656 179.984375 238.84375 180.535156 238.613281 C 181.085938 238.386719 181.644531 238.183594 182.214844 238.011719 C 182.785156 237.839844 183.363281 237.695312 183.945312 237.578125 C 184.53125 237.460938 185.121094 237.375 185.714844 237.316406 C 186.304688 237.257812 186.902344 237.230469 187.496094 237.230469 C 188.09375 237.230469 188.6875 237.257812 189.28125 237.316406 C 189.875 237.375 190.460938 237.460938 191.046875 237.578125 C 191.632812 237.695312 192.207031 237.839844 192.777344 238.011719 C 193.347656 238.183594 193.910156 238.386719 194.460938 238.613281 C 195.011719 238.84375 195.546875 239.097656 196.074219 239.378906 C 196.597656 239.65625 197.109375 239.964844 197.605469 240.296875 C 198.101562 240.625 198.578125 240.980469 199.039062 241.359375 C 199.5 241.738281 199.941406 242.136719 200.363281 242.558594 C 200.785156 242.980469 201.183594 243.421875 201.5625 243.882812 C 201.941406 244.339844 202.292969 244.820312 202.625 245.316406 C 202.957031 245.8125 203.261719 246.320312 203.542969 246.847656 C 203.824219 247.371094 204.078125 247.910156 204.308594 248.460938 C 204.535156 249.011719 204.734375 249.570312 204.910156 250.140625 C 205.082031 250.710938 205.226562 251.289062 205.34375 251.875 C 205.457031 252.457031 205.546875 253.046875 205.605469 253.640625 C 205.664062 254.234375 205.691406 254.828125 205.691406 255.421875 Z M 205.691406 255.421875 " fill-opacity="1" fill-rule="nonzero"/></g><g clip-path="url(#08c8dcfd0a)"><g transform="matrix(1, 0, 0, 1, 131, 221)"><g clip-path="url(#5383c9e40c)"><g clip-path="url(#c0de138d04)"><path fill="#ffde59" d="M 0.25 0.578125 L 112.734375 0.578125 L 112.734375 13.625 L 0.25 13.625 Z M 0.25 0.578125 " fill-opacity="1" fill-rule="nonzero"/></g></g></g></g></svg>